<svg id="Calque_1" data-name="Calque 1" xmlns="http://www.w3.org/2000/svg" viewBox="0 0 851.45 752.68"><title>ai white kifal non trans (1)</title><path d="M654.7,1109.36,680,1075.08l4.94,3.64-10.47,14.19,21.38-6.14,6,4.45-23.27,6.37-.58,29-6.36-4.69.9-26.38L659.63,1113Z" transform="translate(-426.29 -471.27)" style="fill:#fff;stroke:#fff;stroke-linecap:round;stroke-linejoin:round;stroke-width:0.25px"/><path d="M700.38,1139l12.6-24.53,5,2.55-12.59,24.54Zm17.38-35.49a4,4,0,0,1,2.19-2,3.29,3.29,0,0,1,4.45,2.23,4.16,4.16,0,0,1-.4,3,4.21,4.21,0,0,1-2.19,2.06,3.14,3.14,0,0,1-2.73-.11,3.25,3.25,0,0,1-1.68-2.18A4.09,4.09,0,0,1,717.76,1103.55Z" transform="translate(-426.29 -471.27)" style="fill:#fff;stroke:#fff;stroke-linecap:round;stroke-linejoin:round;stroke-width:0.25px"/><path d="M729.59,1152.4l7.82-20.62-4-1.52,2-5.16,4,1.51,2.62-6.91q1.95-5.13,4.77-6.87c1.88-1.15,4.14-1.23,6.79-.22a11.91,11.91,0,0,1,3.33,1.91l-2,5.34a5.74,5.74,0,0,0-1-1.1,4.62,4.62,0,0,0-1.22-.69,3.14,3.14,0,0,0-3.19.28,9.3,9.3,0,0,0-2.49,4.1l-2.33,6.15,5.49,2.08-2,5.17-5.49-2.09-7.82,20.62Z" transform="translate(-426.29 -471.27)" style="fill:#fff;stroke:#fff;stroke-linecap:round;stroke-linejoin:round;stroke-width:0.25px"/><path d="M784.75,1168.38l-5.46-1.23.79-3.49a10.29,10.29,0,0,1-4.19,2.69,8.84,8.84,0,0,1-4.72.13,9.62,9.62,0,0,1-7.08-5.7q-2-4.54-.49-11.34,1.46-6.43,5.31-9.73a9.47,9.47,0,0,1,8.64-2.21,9.08,9.08,0,0,1,4.68,2.5,8.05,8.05,0,0,1,2.14,4.64l1-4.39,5.46,1.23Zm-2.25-14.73a11.06,11.06,0,0,0-.26-6.89,5.78,5.78,0,0,0-4.29-3.41,5.86,5.86,0,0,0-5.41,1.3,13.84,13.84,0,0,0-3,13.25,6.12,6.12,0,0,0,9.66,2A11.3,11.3,0,0,0,782.5,1153.65Z" transform="translate(-426.29 -471.27)" style="fill:#fff;stroke:#fff;stroke-linecap:round;stroke-linejoin:round;stroke-width:0.25px"/><path d="M813.43,1172.17l3.74-44.94,5.58.46L819,1172.63Z" transform="translate(-426.29 -471.27)" style="fill:#fff;stroke:#fff;stroke-linecap:round;stroke-linejoin:round;stroke-width:0.25px"/><path d="M844.17,1157l13.78-.38.16,5.82-13.78.38Z" transform="translate(-426.29 -471.27)" style="fill:#fff;stroke:#fff;stroke-linecap:round;stroke-linejoin:round;stroke-width:0.25px"/><path d="M909.84,1166.71l-6.08-10.09L889,1159.17l-2.46,11.55-6.35,1.1,10.47-46.74,25.53,40.52Zm-19.56-13.6,10.36-1.79-5.46-8.92c-.33-.57-.68-1.24-1-2s-.77-1.59-1.17-2.53c0,1-.11,1.85-.21,2.68s-.19,1.61-.31,2.31Z" transform="translate(-426.29 -471.27)" style="fill:#fff;stroke:#fff;stroke-linecap:round;stroke-linejoin:round;stroke-width:0.25px"/><path d="M936.88,1130.7l5.24,14.63c.9,2.51,2,4.16,3.32,4.92s3,.78,5.08,0,3.37-1.83,3.9-3.25.34-3.4-.56-5.92l-5.24-14.63,5.27-1.88,4.6,12.84q2.67,7.46,1.23,11.77c-1,2.87-3.37,5-7.24,6.39s-7.18,1.32-9.74-.28-4.73-4.89-6.53-9.9l-4.6-12.84Z" transform="translate(-426.29 -471.27)" style="fill:#fff;stroke:#fff;stroke-linecap:round;stroke-linejoin:round;stroke-width:0.25px"/><path d="M990.37,1137.89l-10.32-19.49-3.78,2-2.59-4.89,3.78-2-4.89-9.23,4.95-2.62,4.88,9.23,3.79-2,2.58,4.88-3.78,2,10.32,19.48Z" transform="translate(-426.29 -471.27)" style="fill:#fff;stroke:#fff;stroke-linecap:round;stroke-linejoin:round;stroke-width:0.25px"/><path d="M1010,1110.83a16.05,16.05,0,0,1-2.54-5.23,14.89,14.89,0,0,1-.44-5.59,13.19,13.19,0,0,1,1.65-5.11,12.25,12.25,0,0,1,3.5-3.91,12.49,12.49,0,0,1,4.85-2.15,13.2,13.2,0,0,1,5.45.07,14.8,14.8,0,0,1,5.2,2.16,15.77,15.77,0,0,1,4.11,4,16.25,16.25,0,0,1,2.56,5.22,14.24,14.24,0,0,1,.44,5.54,14,14,0,0,1-1.67,5.29,12.41,12.41,0,0,1-3.52,3.94,12.2,12.2,0,0,1-4.79,2.09,13.27,13.27,0,0,1-5.43-.07,15.29,15.29,0,0,1-5.21-2.19A16,16,0,0,1,1010,1110.83Zm17-12.29a10,10,0,0,0-5.59-4,6.73,6.73,0,0,0-8.68,6.29,10.71,10.71,0,0,0,7.64,10.53,6.71,6.71,0,0,0,8.66-6.28A9.86,9.86,0,0,0,1027.08,1098.54Z" transform="translate(-426.29 -471.27)" style="fill:#fff;stroke:#fff;stroke-linecap:round;stroke-linejoin:round;stroke-width:0.25px"/><path d="M1058.62,1085a4.07,4.07,0,0,1-1.23-2.63,3.09,3.09,0,0,1,3.4-3.38,4.07,4.07,0,0,1,2.63,1.25,3.81,3.81,0,0,1,1.17,2.58,3.18,3.18,0,0,1-3.4,3.38A3.89,3.89,0,0,1,1058.62,1085Z" transform="translate(-426.29 -471.27)" style="fill:#fff;stroke:#fff;stroke-linecap:round;stroke-linejoin:round;stroke-width:0.25px"/><path d="M1088.79,1056.46l-3.16,4.61-22.74-15.61,3-4.33,3.71,2.55a11.84,11.84,0,0,1-1.31-5.51,9.37,9.37,0,0,1,1.75-4.89,7.88,7.88,0,0,1,3.8-3.14,8.19,8.19,0,0,1,5,0,13.65,13.65,0,0,1-1.1-5.74,9.43,9.43,0,0,1,1.73-4.84,8.51,8.51,0,0,1,3.22-2.91,6.81,6.81,0,0,1,4-.66,7.4,7.4,0,0,1,2.16.65,22.15,22.15,0,0,1,3.07,1.84l1.83,1.26,13.79,9.46-3.17,4.62-11.68-8q-4.58-3.15-6.62-3.28a4,4,0,0,0-3.56,2.07,5,5,0,0,0-.71,5.22q1.15,2.51,6,5.86l10.36,7.11-3.19,4.66-11.68-8c-2.82-1.93-5-3-6.47-3.12a4,4,0,0,0-3.77,2,5.6,5.6,0,0,0-1,3,5.89,5.89,0,0,0,.69,3.1,7,7,0,0,0,1.53,1.93,42.91,42.91,0,0,0,4.13,3.09Z" transform="translate(-426.29 -471.27)" style="fill:#fff;stroke:#fff;stroke-linecap:round;stroke-linejoin:round;stroke-width:0.25px"/><path d="M1130.38,976.22l-1.9,5.26-3.37-1.21a10.29,10.29,0,0,1,2.16,4.49,9,9,0,0,1-.46,4.7,9.6,9.6,0,0,1-6.53,6.31q-4.77,1.46-11.31-.91-6.21-2.24-9-6.47a9.5,9.5,0,0,1-1.13-8.85,9.17,9.17,0,0,1,3.06-4.34,8.06,8.06,0,0,1,4.88-1.54l-4.25-1.53,1.9-5.26Zm-14.9.41a11,11,0,0,0-6.87-.6,6.3,6.3,0,0,0-3.3,9.36,13.85,13.85,0,0,0,12.78,4.68,6.14,6.14,0,0,0,3.15-9.35A11.3,11.3,0,0,0,1115.48,976.63Z" transform="translate(-426.29 -471.27)" style="fill:#fff;stroke:#fff;stroke-linecap:round;stroke-linejoin:round;stroke-width:0.25px"/><path d="M439.7,948.67c-2.22,1-2.95-.35-3.41-2.13-3.21-12.23-7.05-24.33-9.47-36.71-3.27-16.68,9.13-35,26.17-40,4.79-1.41,9.6-2.79,14.47-3.84,3.46-.75,4.27-2.39,4.11-5.89C469,803.68,478,749.11,501,697.45c50.67-114,136.66-187.13,258-216.14,131-31.3,266.54,11.85,357.91,111.44A355.42,355.42,0,0,1,1170.46,669c1.6,3.07,3,4.47,6.76,3.17,6.28-2.14,12.81-3.6,19.25-5.27a37.86,37.86,0,0,1,45.59,26.38c4.72,17.17,9.25,34.39,13.94,51.56q6.51,23.83,13.22,47.61c.83,2.91,1,5.53-.73,8.11,0,.43-.29,1.14-.13,1.24.59.37.64-.26.81-.64,1-.79,1.95-1.28,2.43.56,2.8,10.79,6.52,21.49,6.11,32.76-.48,13.47-11.71,27-24.78,30.84-13.56,3.95-27.13,7.84-40.77,11.52-3,.81-4.11,1.76-4.29,5.2-.93,17.77-1.45,35.78-6.44,52.86a168,168,0,0,0-4.25,19.39,6.27,6.27,0,0,1-1.12,2.67c-1.42,1.85-5.31,3.09-1.09,6,.36.25-.11,1.88-.38,2.81-10.71,36.9-27.17,71.1-48.45,103-1.14,1.72-2.42,2.57-4.52,2.31s-3.95-.25-6-.37c.11.5.11,1,.23,1,7,2,7.1,2.13,2.61,7.91-7.43,9.57-15.57,18.52-23.64,27.56-15.14,16.94-31.82,32-49.47,46-15.94,12.68-33.54,22.89-51.71,32.07a22.87,22.87,0,0,1-2.21.79c.13-2.82-3-6.18,2.39-7,1.44-.22,1.39-1.77,1.74-2.8,1.07-3.15,2.09-6.32,3-9.53a11.42,11.42,0,0,1,5.66-7.22,326.08,326.08,0,0,0,78.77-64c1.51-1.67,2.84-4.63,5.53-.55.77-10.59,9-16.18,14.44-23.38,2.72-3.58,2.25,1.24,3.56,2.51,1.77-1.36,3.28-3.64,6.21-3-1.26-3.49-4.17-2.62-7.15-2.83l9.31-14.16a339.85,339.85,0,0,0,40.44-85.42c1.13-3.62,3.52-5.35,8.4-7.59-6.24.37-5.27-2.08-4.57-4.71,5.75-21.6,9.93-43.48,11-65.87a18.72,18.72,0,0,0,.07-3c-.16-1.45,1-3.81-1.76-3.76-2.27,0-2.12,2.17-2.27,3.8-.36,3.81-1,7.63-.94,11.45,0,7-1.38,13.88-2.57,20.59-2.25,12.68-3.76,25.6-8,37.89-.27.78-.38,1.62-.67,2.4-.69,1.87-1.62,3.28-4,2.45s-1.48-2.43-1-4a317.79,317.79,0,0,0,9.7-46.89c.9-7.27,1.44-14.59,2.34-21.86.44-3.64-.77-4.36-4-3.19-2.82,1-5.79,1.56-8.64,2.48-3.86,1.24-7.24,2-11.25-.69-3.41-2.27-7.2.48-11,1.82,3.67,3.4,7.37-.12,12,1.18-2.41.87-3.67,1.42-5,1.78-21.19,5.78-42.36,11.65-63.61,17.2-3.94,1-5.62,2.81-6.38,6.78-3.47,18.24-9.73,35.59-17.71,52.33-.4.85-.58,1.91-1.93,2.37-.32-1.73-.12-3.65-1-4.77-5.55-7.31-2.93-14.2.16-21.54a151.06,151.06,0,0,0,7.79-25.77c.27-1.17,1.5-2.83-.22-3.47-1.89-.7-3.09.85-3.65,2.55-1.16,3.47-2.18,7-3.28,10.47-1.84,5.88-3.65,11.76-5.56,17.61-.28.84-.29,2.17-1.54,2.23s-1.53-1.12-2.08-1.92c-1.17-1.7-.74-3.41-.13-5.23q3.13-9.46,6.07-19c.37-1.2,1.62-2.64.59-3.71s-2.81-.08-4.17.27c-4.36,1.11-8.61,2.78-13,3.44-6.65,1-12.71,3.86-19.19,5.34-7,1.59-13.81,3.76-20.71,5.66-6.41,1.77-6.41,1.77-8.35-4.56,1.62,7.09-3.07,7.7-7.83,8.9-11.62,2.93-23.14,6.22-34.68,9.44-2.67.75-5,1.05-6.21-2.68.22,4.13-2.15,5.12-5.2,5.9-9,2.29-18,4.75-27,7.3-2.47.7-3.86.7-3.44-2.43.13-1,.1-2.27-1.09-2.48s-1.64,1-1.63,2c0,3-2.28,3.78-4.41,4.74-11.78,5.29-24.42,7.74-36.81,10.89-8.81,2.24-18,3.86-26.45,6.65-34.13,11.3-69.29,18.71-103.65,29-11.64,3.5-23.46,6.35-35.19,9.51-1.27.34-2.92.43-3.38,1.76-.56,1.62,1.34,2,2.18,2.94,4.41,4.76,10.34,7.71,14.25,13.36,1.57,2.27,6,3.73,8.89,5.94,1.55,1.18,3.56,2,3.52,4.46,0,1.13.13,1.57,1.08.33,1.14-1.5,2.09,0,2.89.58,31.39,21.44,66.23,33.08,103.89,36.75.83.08,1.65.26,2.47.41,1.64.29,3.62.41,3.39,2.75-.26,2.5-2.24,2.57-4.17,2.31-7.75-1.06-15.52-2.05-23.25-3.26-13.38-2.1-26.26-6.23-39-10.61a145.11,145.11,0,0,1-32.25-15.33c-5-3.24-11.4-4.68-15.19-10.42-1.11-1.69-5.41-3-8-4.91A245.3,245.3,0,0,1,694.85,1022c-1.88-1.85-3.68-4.19-6.86-1.44,10.29,11.56,22.26,21,34.4,30.38,11.44,8.85,24.67,14.22,37.26,20.82,4.05,2.12,7.47,4,6.33,9.34l.07-.08c-3.33,5.59-3.33,5.59-9.94,2.64A227.15,227.15,0,0,1,681,1030c-4.55-4.93-8.6-6.14-15.15-4.23-24.92,7.26-50.06,13.77-75.05,20.77-3.35.94-6.89.58-10.1,2.26-2.56,1.35-2.89,2.29-1,4.69,7.67,9.65,15,19.56,22.69,29.19,2,2.5,2.94,5.9,6.5,7.29,2,.79.47,3.36,1,5.52,2.8-1.87,4.29-.65,5.27,2.1a34.18,34.18,0,0,0,2.68,5.34c.56,1,1.23,3.63,2.18,0,.36-1.36,1.35,0,1.76.4q8,7.9,15.92,15.89c.54.55,1.54,1,1.07,2s-1.67.87-2.62.88c-1.63,0-2.79-1-3.89-2-6.44-6-13.13-11.84-19.26-18.18a325,325,0,0,1-37.82-46.29,32.78,32.78,0,0,0-2.32-3.24c-1-1.1-2.2-.7-3.18-.08-1.26.79-.34,1.7.12,2.52,2.62,4.68,6.18,8.68,9.45,12.87,6.47,8.27,13.87,15.94,19.34,24.81,6.86,11.12,17.31,18.16,26.44,26.76,15.72,14.82,33.59,27.1,51.73,38.22a318.61,318.61,0,0,0,76.34,34.15,364.28,364.28,0,0,0,74.35,13.7c44.15,3.56,87-2.13,129-15.43A346.63,346.63,0,0,0,1013,1166c-.34,3.74-2.41,5.84-4.66,7.68-2.44,2-3.28,4-1.26,6.82.85,1.19,2,3,.27,3.93-5.53,2.89-8.46,8.51-14.88,11.06-23.15,9.18-46.72,16.78-71.11,21.49q-122.8,23.73-234-33.87c-5.49-2.86-10.73-6.47-16.07-9.42-48.92-27-86.68-65.44-117.28-111.49-2.61-3.92-4.85-4.84-9.28-3.5-11.78,3.58-23.72,6.64-35.59,9.89a15.54,15.54,0,0,1-3.42.66,2,2,0,0,1-2.31-2.08c0-1.25,1-1.58,2-1.77,2.35-.43,6.31.9,5.49-3.44-.58-3.08-3.52-4.13-6.77-3.09-.78.25-1.94.41-2.11-.59-.44-2.5-1.49-2.26-2.72-.72-1,1.22-3.7,1.89-1.68,4.31.32.38.67.75.95,1.16,1.14,1.66,2.46,3.42,1.4,5.49-1.18,2.33-3.51,1.57-5.38,1.31-14.77-2-25.7-9.48-30.53-23.8-4.51-13.38-8-27.11-11.81-40.73-4.61-16.5-9-33.06-13.66-49.56-.74-2.66-1.26-4.87,1.88-6.18l2-1.08c.51-.41,1.93-.31,1.29-1.34-.46-.74-1.41,0-2,.52ZM604,947.08c1.49.48,1.64,2,2.24,3.06,9.81,17.79,19.66,35.55,29.29,53.44,1.59,3,3.08,3.42,6.18,2.53q17.28-5,34.74-9.29c4-1,4.17-2.16,2.08-5.52-15.14-24.31-30-48.77-45.13-73.11a13.6,13.6,0,0,1-2.22-8.41c1.41-23.28,2.62-46.57,4-69.84.22-3.59-.49-4.76-4.28-3.66-10.24,3-20.52,5.75-30.87,8.29-3.24.8-4.08,2.27-4.13,5.44-.2,14.49-.7,29-1,43.47-.12,5.37,0,10.74,0,16.11l-1.32.11c-.43-1.51-.92-3-1.28-4.54-3.95-16.65-9.69-32.84-12.68-49.75-.46-2.64-1.68-5-5.77-4.26-3.7.66-7-1.63-9.68-4.34-1.71-1.75-2.08-4.6-6-5.55,2.28-.66,3.73-1.45,4.06-1.12,2.94,2.94,4.78.89,6.77-1.18a9.22,9.22,0,0,1,4.46-2.09q34-9.35,67.91-18.76c5.3-1.46,10.68-2.59,15.94-4.16,5-1.47,10.54-.81,15-4.2a1.25,1.25,0,0,1,.47-.16q26.35-7.1,52.71-14.18c1.18-.31,2.48-1.16,3.66,0,.57,1.89-2.51,3.78.15,5.91,1.39-2.93,2.74-5.56,3.88-8.27a22.74,22.74,0,0,0,.86-3.9c9.09-41.56,33.63-69.68,74.63-81.11,40.84-11.38,76.29,0,105.43,30.68,3,3.15,4.5,4.46,9.72,2.94,18.77-5.5,37.42-11.81,57-13.94a2.74,2.74,0,0,0,1.79-.69c3.35-4.7,9-3.58,13.45-5.35a2.29,2.29,0,0,1,3,1c.69,1.17.18,2.28-.58,3.22-1.26,1.57-2.6,3.07-4.51,5.3,5.27-.39,6.91-3.28,8.47-6.55,1.36-2.88,1.86-7,6-7.22,6.39-.4,11.85-3.75,17.93-5.07,2.82-.61,6,.34,8.63-1.95-79.78,1.43-125.68-90.36-75-154a302.58,302.58,0,0,0-97.91-24.3c-2.73-.22-3,1-2.68,3.23a78.07,78.07,0,0,1-.6,24.88c-7,41.67-40.35,74.22-84.27,78.36a93.67,93.67,0,0,1-94.4-56.16c-1.35-3.15-2.28-4-5.5-1.82a313.56,313.56,0,0,0-41.84,33.19,286.89,286.89,0,0,0-29.71,32.62c1.2.57,2.05,1,2.94,1.4,38.32,16.13,60.62,52,58.24,93.56C661,797.66,605.87,839,550.8,826.47c-4.13-.94-9.53-4.65-11.95-2.4-2.21,2-.7,8.16-.72,12.48,0,10.09,0,10.1,9.88,7.36,3.18-.89,6.35-2.42,9.29.59,3.4,3.48,7.57,5.86,12.71,8.18-10.71,2.89-20.59,5.67-30.54,8.18-2.84.72-3.76,1.53-2.9,4.71q20.82,76.89,41.3,153.85c.74,2.79,1.64,3.39,4.37,2.63,11.7-3.28,23.42-6.51,35.2-9.45,3.24-.81,3.26-2.13,2.5-4.83-4-14.27-7.93-28.55-11.61-42.9-1.51-5.93-3.94-11.65-4.24-17.87ZM914,762.57c.07.8.1,1.47.19,2.13q10.43,79.23,20.8,158.47c.4,3,1.49,3.54,4.18,2.8,12.2-3.35,24.4-6.69,36.66-9.82,2.87-.73,3.2-1.95,2.61-4.57-1.08-4.87-1.73-9.84-2.62-14.75-2-11.2-2-11,8.74-14.17,3.58-1.06,4.6.09,5.56,3.16,2,6.5,4.69,12.83,6.53,19.39,1.1,3.9,2.57,4.84,6.54,3.67,11-3.25,22.13-6.17,33.27-8.94,3.89-1,5-2,3.09-6.15-9.92-22.18-19.48-44.52-29.16-66.81q-17.22-39.62-34.45-79.22c-.78-1.8-.86-4.17-4.33-3.21-18.28,5.09-36.64,9.91-55,14.82C914.88,759.83,913.34,760.4,914,762.57Zm-59.35,13.85c-1,.26-1.83.45-2.63.67-21.22,5.7-42.43,11.45-63.67,17-3,.8-3.4,1.85-2.6,4.83q20.73,76.63,41.12,153.36c.88,3.34,2.08,3.66,5.11,2.8,11.21-3.19,22.45-6.27,33.77-9,3.79-.92,4.13-2.34,3.17-5.78-5.44-19.56-10.55-39.22-16-58.77-.93-3.35-.42-4.68,3-5.45,6-1.34,11.86-3.36,17.88-4.62,3.49-.74,3.71-2.26,2.85-5.22-2.25-7.66-4.37-15.37-6.26-23.13-.67-2.76-1.59-3.53-4.4-2.68-6.05,1.83-12.29,3.06-18.27,5.08-3.63,1.22-4.58-.13-5.35-3.23-1.84-7.43-3.73-14.86-6-22.17-1-3.34.11-4.33,3.09-5.06,7.27-1.79,14.47-3.89,21.72-5.75,2.05-.53,3.32-1,2.59-3.63-2.54-9-4.9-18-7.37-27C856.12,777.71,856.18,776.21,854.62,776.42Zm236,108.77,1.14-.24q31.11-8.38,62.24-16.71c2.27-.6,2.43-1.76,1.92-3.64q-3.6-13.26-7.09-26.55c-.57-2.21-1.46-2.88-3.85-2.13-5.41,1.67-11,2.66-16.37,4.52-4.57,1.58-6.41.85-7.74-4.25-10.33-39.46-21.08-78.81-31.53-118.24-.94-3.56-2-4.52-5.74-3.43q-16.55,4.83-33.3,8.89c-3.77.91-4.12,2.29-3.16,5.76,6.46,23.43,12.69,46.93,19,70.4q11,41,22.05,82C1088.58,883.1,1088.32,885.6,1090.6,885.19ZM769.86,969.48c-.62-2.24-1.24-4.49-1.85-6.73q-19.86-74-39.62-148c-1-3.67-2.15-4.31-5.72-3.27q-16.53,4.83-33.26,8.91c-3.7.89-4.19,2.2-3.23,5.71,8.26,30.16,16.32,60.38,24.43,90.58q8.28,30.84,16.56,61.69c.52,1.91.42,4.51,3.92,3.54,12.18-3.38,24.41-6.61,36.62-9.87C769.09,971.69,770.38,971.37,769.86,969.48ZM890.24,750.39c-21.92-18.32-45.59-25.26-72.38-18.64-28.57,7.06-47,25.44-57,53.63a98,98,0,0,0,14.57-3.57c9.35-3,18.94-5.12,28.37-7.86,6.32-1.84,12.86-2.74,19.13-4.94s6.47-1.78,7.83,5c-.47-6.71,3.78-8.46,9.09-9.85C856.21,759.89,872.53,755.26,890.24,750.39ZM1079,699q9.81-2.82,19.61-5.63c8.12-2.31,8.46-3.48,3.24-10.2-1.12-1.45-1.82-1.51-3.06-.25C1092.82,689,1086,694,1079,699Zm-92.36,28.8c-1.15,3.1.38,4.66,2,6.39,3.39,3.7,3.13,5.73-.5,9.25a14.17,14.17,0,0,0-2.26,3.81c-.57,1.12-1.8,2.47-.07,3.44s2.76-.3,3.63-1.65c1.58-2.42,2.16-5.65,5.74-6.45,1-.22-.13-10.22-1.14-10.78-.12-.06-.32-.15-.39-.1C989.17,735,989,729.58,986.65,727.79ZM526.15,865.22a15.84,15.84,0,0,0,2.87-9c.14-2.42-2.07-3.65-3.82-4.78-1-.65-2,.35-2,1.41,0,2-1.86,5.74-.31,5.78C527.93,858.71,526.3,861.88,526.15,865.22Zm199.92,194.27c-2.33-3.4-2.55-3.63-3.63-2.6s-4,1.9-2.83,3.8c1.28,2.12,3-.89,4.72-.75A6.22,6.22,0,0,0,726.07,1059.49ZM712.35,1035c.5-.25,1.19-.12,1-.86-.1-.48-.38-.93-1-.56a6.51,6.51,0,0,0-1,1Zm28.48,19.44-.32-.33a2.77,2.77,0,0,0-.29.6c0,.07.19.19.29.29Z" transform="translate(-426.29 -471.27)" style="fill:#fff"/><path d="M996.07,1052c.34,2.41-.74,4-2.69,5.4-36.7,26.71-77.61,41.82-122.88,45.63a234.06,234.06,0,0,1-75.31-6.12c-7.7-1.86-15.14-4.81-22.81-6.84-5-1.32-7.39-3.83-6.33-9.07l-.07.08c2.18-4,5.19-4.91,9.26-2.64s9.76,1.61,12.69,6.34c7.67-1.5,14.58,2.09,21.78,3.46a221,221,0,0,0,104.72-5.17c6.22-1.83,8.72,2.23,12,5.74a3.08,3.08,0,0,0,.1-3.81c-3.72-4.43-.68-5.27,2.93-6.67,7.59-2.95,15-6.27,22.47-9.63,2.64-1.2,5-2.49,7.84.65-1.22-4.5,1.73-5.78,4.3-7.25,27.88-15.94,51.48-36.65,70-63,7.57-10.75,14.73-21.77,20.16-33.82.65-1.44,1-3.13,3-4.35,1.69,4.06,3.38,8,5,11.95.9,2.3-.43,4.26-1.45,6.11-15.39,27.87-34.87,52.39-59.76,72.43-1.55,1.25-2.94,3.27-4.95.63a3.07,3.07,0,0,0-.66-3.3c-.19-.83-.37-1.67-.56-2.5-.57,1-1,2,.14,2.87C995,1050.23,994.77,1051.44,996.07,1052Z" transform="translate(-426.29 -471.27)" style="fill:#fff"/><path d="M847.28,1202.77c-11.46-.86-23-1.26-34.36-2.65-27.07-3.3-53.54-9.31-79.07-19.11-1.4-.53-2.79-1.09-4.18-1.63-1.87-.73-3.34-1.74-2.54-4.08.9-2.61,2.73-1.7,4.49-1.1q11.1,3.78,22.21,7.53c26.53,8.92,53.82,13.57,81.76,15q86.19,4.3,163.22-34.47,6.69-3.36,13.45-6.58c1.09-.52,2.45-1.94,3.45-.35a3.5,3.5,0,0,1-.42,4.22,15.62,15.62,0,0,1-4.09,2.75c-17.39,8.36-34.5,17.42-53.07,22.94-14.47,4.29-29,8-43.92,11-19.38,3.92-38.8,5.66-58.43,6.31-2.82.1-5.66,0-8.48,0Z" transform="translate(-426.29 -471.27)" style="fill:#fff"/><path d="M1084.19,1106.84c-3-2-1.48-3.43.06-5.08,8.53-9.12,17.9-17.63,25.26-27.62,9-12.28,18-24.72,25.83-37.89C1148,1015,1156.6,991.9,1165.68,969c.24-.61.22-1.33.5-1.92.78-1.65,2-2.85,3.94-2.05s1.46,2.28,1,3.81c-2.92,10.09-7,19.75-11,29.41a302.63,302.63,0,0,1-33.82,60.41c-3.66,5-6.77,10.48-10.66,15.36-26,32.56-56.09,60.42-92.26,81.41-1.25.73-2.34,2.77-4.31,1.2-2.84-2.26-2-3.74.8-5.39a309.07,309.07,0,0,0,46.7-33.32q4-3.43,7.82-7C1078,1107.54,1078.6,1107.26,1084.19,1106.84Z" transform="translate(-426.29 -471.27)" style="fill:#fff"/><path d="M1025,997c4.43,4.88-.31,7.58-2.67,10.69-13.58,17.85-31.32,31.3-49,44.55-5,3.76-11.44,6.64-17.56,9.32-6.54,2.88-12.79,6.4-19.25,9.48s-13.46,4.38-20.16,6.61c-5,1.67-9.91,3.55-15.1,4.73-17.54,4-35.25,6.28-53.27,5.56-1.43,0-4.12,1.22-4-2,.06-2.58,2-3,4.23-3.15,9.64-.59,19.28-1.31,28.92-1.92,25.1-1.58,48.1-10.11,70.55-20.83,29.28-14,53.52-34,73.49-59.46,1.09-1.4,1.82-3.29,4-3.55Z" transform="translate(-426.29 -471.27)" style="fill:#fff"/><path d="M924.15,1027.36c-4.53,1.93-8.26,3.81-12.18,5.1a8.92,8.92,0,0,0-6.57,7.9c-.6,4.09-1.39,8.16-2.23,13.05a30.36,30.36,0,0,1-7.75-8.1c-3.2-5.2-7.74-6.52-13.31-5.1a64.7,64.7,0,0,1-11.13,1.35c2.61-4.49,4.74-8.58,7.27-12.39,2-3,2-5.71.34-8.84-2-3.8-4.14-7.58-5.49-12.67l16.4,3.51c-1.14,2.59-6,2.64-4.77,5.22s3.95-1.1,6.14-.74c4.29.7,8.5,1.46,12.2-1.84a1.65,1.65,0,0,1,2.25.52C909.74,1020.87,917.67,1022.37,924.15,1027.36Z" transform="translate(-426.29 -471.27)" style="fill:#fff"/><path d="M829.48,1013.38c7.38,9.24,14.56,3.59,23.37.17-5.83,11-3.67,19.4,6.3,26.29-3,.32-4.57.78-6,.59-8.14-1.11-13.17,2.45-15.73,10a9.36,9.36,0,0,1-1.31,2.11c-.08.12-.29.16-1.29.7-1.56-10.76-7.57-16.84-19.26-16.75C822.91,1030.42,829.61,1024.69,829.48,1013.38Z" transform="translate(-426.29 -471.27)" style="fill:#fff"/><path d="M934.9,1018c-.59-4.85,3.06-9.59,1-13.78-1.88-3.83-5.7-6.71-9.75-11.22,11.62,1.16,19-2.92,21.7-14.61,3.6,10.45,9.53,16.86,21.39,14.87l.18,1.61a64.61,64.61,0,0,1-6.13,5.36c-3.43,2.34-4.82,5.33-4.07,9.39.26,1.42.93,3.26-1,3.85a4.13,4.13,0,0,1-4.88-1.4c-1.54-2-2.83-3.87-2.27-6.67a15.75,15.75,0,0,0-.8-9.34c-.91,4.59-1.66,9.23-.9,13.87.35,2.12.34,2.94-2.07,3.11C942.76,1013.4,939.66,1017.68,934.9,1018Z" transform="translate(-426.29 -471.27)" style="fill:#fff"/><path d="M642.61,1122.63c2.32.62,3.81,2.55,5.67,3.91,3.42,2.5,6.3,5.52,10,8,20,13.35,40.56,25.54,62.52,35.36,1.2.54,3.75.29,2.53,3.13-1,2.4-2.5,2.61-4.75,1.75-11.23-4.34-21.67-10.23-32-16.33-15.78-9.32-31.34-19-45.3-31-.84-.72-2.77-1.26-1.56-3A3.85,3.85,0,0,1,642.61,1122.63Z" transform="translate(-426.29 -471.27)" style="fill:#fff"/><path d="M788,1005.25c4.29,6.46,9.52,9,16.9,5.52-.39,3.39-1.55,4.61-4,4.42a6,6,0,0,0-5.06,1.6c-1.54,1.54-1.41,3.6.7,3.74,5.72.37,5.54,5.24,7.64,9.21-6.83-2.31-12.66-1.61-17.33,4.86-.43-7.21-2.8-12.74-10.26-15.14C783.94,1017.41,787.94,1013.17,788,1005.25Z" transform="translate(-426.29 -471.27)" style="fill:#fff"/><path d="M976.47,953.85c2.9,1.24,5,2.56,4.73,4.87-.64,5,2,3.25,4.6,2.78,2.3-.41,5.21-2.92,6.85-.46,1.42,2.15-1.2,4.6-2.61,6.52-1.2,1.64-1.89,2.38.08,4.08a8,8,0,0,1,2.75,6.7c-6.23-2-12-1.94-16.6,5.35-1.06-6.15-3.3-10.58-1.23-15.63-2.74-1.28-5.53.74-9.46-.79C973.28,965.49,977,961.26,976.47,953.85Z" transform="translate(-426.29 -471.27)" style="fill:#fff"/><path d="M1025.13,997.12c0-.49-.16-1.11.08-1.45a319.78,319.78,0,0,0,26.17-45.91c3.77,2.06,4.13,4.33,2.16,7.76-3.3,5.75-5.64,12.11-9.37,17.54-3.14,4.55-5.22,9.62-8.24,14.19-2.69,4.07-5.83,7.18-10.89,7.79Z" transform="translate(-426.29 -471.27)" style="fill:#fff"/><path d="M905.31,998.75c1.5,8.9-2.48,14.23-9.21,13.44-1.1-.13-2.56,0-2.94-1.35-.3-1.07.89-1.63,1.57-2.27C898.06,1005.43,901.43,1002.34,905.31,998.75Z" transform="translate(-426.29 -471.27)" style="fill:#fff"/><path d="M1064.43,1007.06c.24-1,.54-2,.86-2.93-1,.33-1.33,1.18-1.27,2.43a4.68,4.68,0,0,0,.11.75Z" transform="translate(-426.29 -471.27)" style="fill:#fff"/><path d="M1269.17,801.16c-.17.38-.22,1-.81.64-.16-.1.08-.81.13-1.24A5.51,5.51,0,0,1,1269.17,801.16Z" transform="translate(-426.29 -471.27)" style="fill:#fff"/><path d="M604.09,947c-.62.07-.77-.31-.73-.81,0-.11.19-.21.29-.32l.34,1.21Z" transform="translate(-426.29 -471.27)" style="fill:#fff"/><path d="M956.83,792c1.54,4.34,3,8.71,4.62,13,5.59,15,11.15,29.93,16.9,44.82,1,2.71.72,3.62-2.15,4.47-10.54,3.1-10.71,3.25-12.42-7.68-2.83-18.07-5.36-36.18-8-54.28Z" transform="translate(-426.29 -471.27)" style="fill:#fff"/></svg>